<svg width="517" height="569" viewBox="0 0 517 569" fill="none" xmlns="http://www.w3.org/2000/svg">
<g clip-path="url(#clip0_88_209)">
<path d="M258.5 569.125C114.713 537.169 -0.25 401.507 -0.25 258.625V103.375L258.5 -0.125L517.25 103.375V258.625C517.25 401.559 402.287 537.169 258.5 569.125ZM51.5 129.25V258.625C52.9787 318.451 74.0206 376.145 111.405 422.876C148.79 469.607 200.457 502.8 258.5 517.375C316.543 502.8 368.21 469.607 405.595 422.876C442.979 376.145 464.021 318.451 465.5 258.625V129.25L258.5 51.625L51.5 129.25Z" fill="#F8F8F8"/>
<path d="M258.5 258.625C294.226 258.625 323.188 229.663 323.188 193.938C323.188 158.212 294.226 129.25 258.5 129.25C222.774 129.25 193.812 158.212 193.812 193.938C193.812 229.663 222.774 258.625 258.5 258.625Z" fill="#F8F8F8"/>
<path d="M129.125 362.125C141.874 385.37 160.573 404.807 183.307 418.447C206.04 432.087 231.99 439.439 258.5 439.75C285.01 439.439 310.96 432.087 333.693 418.447C356.427 404.807 375.126 385.37 387.875 362.125C387.228 313.066 301.401 284.5 258.5 284.5C215.366 284.5 129.772 313.066 129.125 362.125Z" fill="#F8F8F8"/>
</g>
<defs>
<clipPath id="clip0_88_209">
<rect width="517" height="569" fill="white"/>
</clipPath>
</defs>
</svg>
