<svg width="479" height="292" viewBox="0 0 479 292" fill="none" xmlns="http://www.w3.org/2000/svg">
<path fill-rule="evenodd" clip-rule="evenodd" d="M85.9206 142.016L144.898 200.992C147.104 203.048 148.873 205.527 150.1 208.281C151.327 211.035 151.987 214.009 152.04 217.023C152.094 220.038 151.539 223.033 150.41 225.829C149.28 228.624 147.6 231.164 145.467 233.296C143.335 235.428 140.796 237.109 138 238.238C135.204 239.368 132.209 239.922 129.195 239.869C126.18 239.816 123.207 239.156 120.452 237.929C117.698 236.702 115.219 234.932 113.164 232.726L15.8669 135.429L0 119.562L15.8669 103.696L113.164 6.39873C117.42 2.43261 123.05 0.273424 128.867 0.376057C134.684 0.478689 140.234 2.83513 144.347 6.94893C148.461 11.0627 150.818 16.6127 150.92 22.4296C151.023 28.2465 148.864 33.8761 144.898 38.1325L85.9206 97.1093H381.703C407.508 97.1093 432.256 107.36 450.502 125.607C468.749 143.854 479 168.601 479 194.406C479 220.211 468.749 244.959 450.502 263.205C432.256 281.452 407.508 291.703 381.703 291.703H321.828C315.873 291.703 310.162 289.337 305.951 285.127C301.741 280.916 299.375 275.205 299.375 269.25C299.375 263.295 301.741 257.584 305.951 253.373C310.162 249.162 315.873 246.797 321.828 246.797H381.703C395.598 246.797 408.924 241.277 418.749 231.452C428.574 221.627 434.094 208.301 434.094 194.406C434.094 180.511 428.574 167.186 418.749 157.36C408.924 147.535 395.598 142.016 381.703 142.016H85.9206Z" fill="#F8F8F8"/>
</svg>
