<svg width="234" height="234" viewBox="0 0 234 234" fill="none" xmlns="http://www.w3.org/2000/svg">
<path d="M26.5833 207.417H44.9896L171.25 81.1563L152.844 62.75L26.5833 189.01V207.417ZM0.75 233.25V178.354L171.25 8.17708C173.833 5.80903 176.688 3.97917 179.814 2.6875C182.94 1.39583 186.22 0.75 189.656 0.75C193.092 0.75 196.429 1.39583 199.667 2.6875C202.904 3.97917 205.703 5.91667 208.062 8.5L225.823 26.5833C228.406 28.9514 230.292 31.75 231.48 34.9792C232.669 38.2083 233.259 41.4375 233.25 44.6667C233.25 48.1111 232.66 51.3963 231.48 54.5221C230.301 57.6479 228.415 60.4982 225.823 63.0729L55.6458 233.25H0.75ZM161.885 72.1146L152.844 62.75L171.25 81.1563L161.885 72.1146Z" fill="black"/>
</svg>
