<svg width="42" height="42" viewBox="0 0 42 42" fill="none" xmlns="http://www.w3.org/2000/svg">
<path d="M30.375 1H10.7917C5.38388 1 1 5.38388 1 10.7917V30.375C1 35.7828 5.38388 40.1667 10.7917 40.1667H30.375C35.7828 40.1667 40.1667 35.7828 40.1667 30.375V10.7917C40.1667 5.38388 35.7828 1 30.375 1Z" stroke="white" stroke-width="2" stroke-linecap="round" stroke-linejoin="round"/>
<path d="M31.3542 9.8125H31.3737M28.4167 19.3496C28.6583 20.9794 28.38 22.6439 27.6211 24.1064C26.8623 25.5689 25.6616 26.7548 24.1898 27.4956C22.7181 28.2364 21.0503 28.4942 19.4236 28.2325C17.7969 27.9707 16.2941 27.2027 15.1291 26.0376C13.964 24.8726 13.196 23.3698 12.9342 21.7431C12.6725 20.1164 12.9303 18.4485 13.6711 16.9768C14.4118 15.5051 15.5978 14.3044 17.0603 13.5456C18.5227 12.7867 20.1873 12.5083 21.8171 12.75C23.4796 12.9965 25.0187 13.7712 26.2071 14.9596C27.3955 16.148 28.1701 17.6871 28.4167 19.3496Z" stroke="white" stroke-width="2" stroke-linecap="round" stroke-linejoin="round"/>
</svg>
