<svg width="41" height="41" viewBox="0 0 41 41" fill="none" xmlns="http://www.w3.org/2000/svg">
<path d="M0.083252 2.9485C0.083252 1.366 1.39825 0.0834961 3.02075 0.0834961H37.1458C38.7683 0.0834961 40.0833 1.366 40.0833 2.9485V37.2185C40.0833 38.801 38.7683 40.0835 37.1458 40.0835H3.02075C1.39825 40.0835 0.083252 38.801 0.083252 37.2185V2.9485ZM12.4408 33.5685V15.506H6.43825V33.5685H12.4408ZM9.44075 13.0385C11.5333 13.0385 12.8358 11.6535 12.8358 9.9185C12.7983 8.146 11.5358 6.7985 9.48075 6.7985C7.42575 6.7985 6.08325 8.1485 6.08325 9.9185C6.08325 11.6535 7.38575 13.0385 9.40075 13.0385H9.44075ZM21.7108 33.5685V23.481C21.7108 22.941 21.7508 22.401 21.9108 22.016C22.3433 20.9385 23.3308 19.821 24.9908 19.821C27.1633 19.821 28.0308 21.476 28.0308 23.906V33.5685H34.0333V23.2085C34.0333 17.6585 31.0733 15.0785 27.1233 15.0785C23.9383 15.0785 22.5108 16.8285 21.7108 18.061V18.1235H21.6708L21.7108 18.061V15.506H15.7108C15.7858 17.201 15.7108 33.5685 15.7108 33.5685H21.7108Z" fill="white"/>
</svg>
