<svg width="45" height="37" viewBox="0 0 45 37" fill="none" xmlns="http://www.w3.org/2000/svg">
<path fill-rule="evenodd" clip-rule="evenodd" d="M22.5833 0.916992C24.4715 0.916992 26.4082 0.965576 28.2852 1.04508L30.5024 1.15108L32.6246 1.27695L34.6121 1.41166L36.4274 1.55299C38.3973 1.70377 40.251 2.54442 41.6623 3.92704C43.0736 5.30966 43.9521 7.14569 44.1433 9.11212L44.2316 10.0507L44.3972 12.0602C44.5518 14.1427 44.6667 16.4129 44.6667 18.5837C44.6667 20.7545 44.5518 23.0246 44.3972 25.1071L44.2316 27.1167C44.2029 27.4391 44.1742 27.7505 44.1433 28.0552C43.952 30.022 43.0732 31.8583 41.6614 33.241C40.2497 34.6236 38.3955 35.464 36.4252 35.6143L34.6143 35.7535L32.6268 35.8904L30.5024 36.0162L28.2852 36.1222C26.3857 36.2048 24.4847 36.2475 22.5833 36.2503C20.682 36.2475 18.781 36.2048 16.8814 36.1222L14.6642 36.0162L12.542 35.8904L10.5545 35.7535L8.73929 35.6143C6.76935 35.4635 4.91568 34.6229 3.50438 33.2403C2.09308 31.8577 1.21456 30.0216 1.02337 28.0552L0.935042 27.1167L0.769417 25.1071C0.600562 22.9366 0.510697 20.7607 0.5 18.5837C0.5 16.4129 0.614833 14.1427 0.769417 12.0602L0.935042 10.0507C0.96375 9.72824 0.992458 9.41687 1.02337 9.11212C1.21449 7.14603 2.09269 5.31028 3.50354 3.92771C4.91438 2.54513 6.76753 1.70427 8.73708 1.55299L10.5501 1.41166L12.5376 1.27695L14.662 1.15108L16.8792 1.04508C18.7795 0.962557 20.6813 0.919853 22.5833 0.916992ZM18.1667 13.2285V23.9389C18.1667 24.9591 19.2708 25.5951 20.1542 25.0872L29.4292 19.732C29.631 19.6158 29.7986 19.4485 29.9152 19.2469C30.0318 19.0453 30.0931 18.8165 30.0931 18.5837C30.0931 18.3508 30.0318 18.122 29.9152 17.9204C29.7986 17.7188 29.631 17.5515 29.4292 17.4353L20.1542 12.0823C19.9527 11.966 19.7241 11.9048 19.4915 11.9048C19.2588 11.9048 19.0302 11.9661 18.8288 12.0825C18.6273 12.1989 18.4601 12.3663 18.3439 12.5679C18.2276 12.7694 18.1665 12.998 18.1667 13.2307V13.2285Z" fill="white"/>
</svg>
